<?xml version="1.0" encoding="UTF-8" standalone="no"?>
<svg
   xmlns:dc="http://purl.org/dc/elements/1.1/"
   xmlns:cc="http://creativecommons.org/ns#"
   xmlns:rdf="http://www.w3.org/1999/02/22-rdf-syntax-ns#"
   xmlns:svg="http://www.w3.org/2000/svg"
   xmlns="http://www.w3.org/2000/svg"
   xmlns:sodipodi="http://sodipodi.sourceforge.net/DTD/sodipodi-0.dtd"
   xmlns:inkscape="http://www.inkscape.org/namespaces/inkscape"
   version="1.1"
   id="Capa_1"
   x="0px"
   y="0px"
   viewBox="0 0 446.775 446.775"
   style="enable-background:new 0 0 446.775 446.775;"
   xml:space="preserve"
   sodipodi:docname="megaphone.svg"
   inkscape:version="1.0.1 (0767f8302a, 2020-10-17)"><metadata
   id="metadata963"><rdf:RDF><cc:Work
       rdf:about=""><dc:format>image/svg+xml</dc:format><dc:type
         rdf:resource="http://purl.org/dc/dcmitype/StillImage" /><dc:title></dc:title></cc:Work></rdf:RDF></metadata><defs
   id="defs961" /><sodipodi:namedview
   pagecolor="#ffffff"
   bordercolor="#666666"
   borderopacity="1"
   objecttolerance="10"
   gridtolerance="10"
   guidetolerance="10"
   inkscape:pageopacity="0"
   inkscape:pageshadow="2"
   inkscape:window-width="1366"
   inkscape:window-height="721"
   id="namedview959"
   showgrid="false"
   inkscape:zoom="0.62223714"
   inkscape:cx="223.3875"
   inkscape:cy="223.3875"
   inkscape:window-x="0"
   inkscape:window-y="0"
   inkscape:window-maximized="1"
   inkscape:current-layer="Capa_1" />
<g
   id="g926"
   transform="matrix(-1,0,0,1,446.77632,0)">
	<path
   d="m 174.568,109.635 c 29.688,0 53.842,-24.153 53.842,-53.843 0,-29.688 -24.153,-53.842 -53.842,-53.842 -29.683,0 -53.831,24.153 -53.831,53.842 0,29.689 24.149,53.843 53.831,53.843 z"
   id="path916" />
	<path
   d="m 343.743,42.14 c -0.333,0 -0.672,0.032 -1.008,0.095 l -92.277,17.154 c -2.905,0.541 -5.96,3.145 -6.955,5.93 l -7.846,21.996 c -0.514,1.438 -0.416,2.954 0.274,4.267 0.69,1.313 1.884,2.251 3.36,2.644 l 3.273,0.869 c 5.491,12.233 10.511,25.836 13.475,36.497 -9.308,-2.499 -20.552,-6.395 -30.305,-10.531 -2.151,-0.912 -6.048,-1.858 -8.485,-1.858 H 135.516 C 115.558,101.33 96.564,83.429 89.672,75.333 c 1.883,-8.132 10.844,-25.738 20.196,-39.527 3.442,-5.061 4.708,-11.16 3.563,-17.173 C 112.285,12.62 108.867,7.413 103.806,3.972 99.989,1.373 95.54,0 90.94,0 83.334,0 76.244,3.75 71.974,10.031 c -0.348,0.51 -8.602,12.664 -16.01,27.211 -13.028,25.587 -15.73,43.156 -8.756,56.968 2.103,4.164 6.015,11.914 44.587,47.212 10.67,9.765 20.953,18.867 27.615,24.711 v 256.489 c 0,13.317 10.836,24.153 24.155,24.153 13.317,0 24.153,-10.836 24.153,-24.153 V 284.22 h 13.82 v 138.402 c 0,13.317 10.835,24.153 24.153,24.153 13.318,0 24.154,-10.836 24.154,-24.153 l -0.109,-251.145 c 3.122,1.048 6.414,2.096 9.766,3.075 10.443,3.055 19.058,4.778 26.338,5.267 1.35,0.092 2.68,0.137 3.952,0.137 19.484,0 27.602,-10.316 30.708,-16.466 6.064,-12.011 5.13,-28.299 -3.227,-53.867 l 45.47,12.075 c 0.461,0.123 0.923,0.184 1.374,0.184 2.548,0 4.397,-1.944 4.397,-4.624 v -70.22 c 10e-4,-2.792 -2.051,-4.898 -4.771,-4.898 z"
   id="path918" />
	<path
   d="m 369.814,57.861 c 0.764,0 1.543,-0.135 2.301,-0.416 l 26.888,-9.998 c 3.42,-1.271 5.16,-5.074 3.89,-8.493 -1.272,-3.42 -5.078,-5.161 -8.494,-3.89 l -26.888,9.996 c -3.42,1.272 -5.16,5.075 -3.89,8.494 0.988,2.662 3.511,4.307 6.193,4.307 z"
   id="path920" />
	<path
   d="m 369.812,87.049 h 26.887 c 3.648,0 6.606,-2.957 6.606,-6.605 0,-3.648 -2.958,-6.605 -6.606,-6.605 h -26.887 c -3.647,0 -6.605,2.957 -6.605,6.605 0,3.648 2.957,6.605 6.605,6.605 z"
   id="path922" />
	<path
   d="m 399.002,113.44 -26.887,-9.997 c -3.421,-1.271 -7.224,0.47 -8.494,3.89 -1.271,3.419 0.47,7.222 3.89,8.494 l 26.887,9.997 c 0.76,0.281 1.537,0.416 2.301,0.416 2.682,0 5.204,-1.646 6.193,-4.307 1.27,-3.418 -0.47,-7.221 -3.89,-8.493 z"
   id="path924" />
</g>
<g
   id="g928"
   transform="matrix(-1,0,0,1,446.77632,0)">
</g>
<g
   id="g930"
   transform="matrix(-1,0,0,1,446.77632,0)">
</g>
<g
   id="g932"
   transform="matrix(-1,0,0,1,446.77632,0)">
</g>
<g
   id="g934"
   transform="matrix(-1,0,0,1,446.77632,0)">
</g>
<g
   id="g936"
   transform="matrix(-1,0,0,1,446.77632,0)">
</g>
<g
   id="g938"
   transform="matrix(-1,0,0,1,446.77632,0)">
</g>
<g
   id="g940"
   transform="matrix(-1,0,0,1,446.77632,0)">
</g>
<g
   id="g942"
   transform="matrix(-1,0,0,1,446.77632,0)">
</g>
<g
   id="g944"
   transform="matrix(-1,0,0,1,446.77632,0)">
</g>
<g
   id="g946"
   transform="matrix(-1,0,0,1,446.77632,0)">
</g>
<g
   id="g948"
   transform="matrix(-1,0,0,1,446.77632,0)">
</g>
<g
   id="g950"
   transform="matrix(-1,0,0,1,446.77632,0)">
</g>
<g
   id="g952"
   transform="matrix(-1,0,0,1,446.77632,0)">
</g>
<g
   id="g954"
   transform="matrix(-1,0,0,1,446.77632,0)">
</g>
<g
   id="g956"
   transform="matrix(-1,0,0,1,446.77632,0)">
</g>
</svg>
